<svg width="1440" height="769" viewBox="0 0 1440 769" fill="none" xmlns="http://www.w3.org/2000/svg">
<g filter="url(#filter0_bd_0_1)">
<path d="M60.3892 86.739L31.7943 114.436L31.7942 114.436C28.5512 117.577 26.9297 119.148 25.7707 120.996C24.7434 122.634 23.9866 124.427 23.5297 126.306C23.0142 128.425 23.02 130.683 23.0317 135.198L24.4335 675.916C24.4449 680.327 24.4507 682.533 24.9552 684.607C25.4025 686.445 26.1369 688.202 27.1314 689.812C28.2531 691.628 29.819 693.181 32.9507 696.288L58.5137 721.646L58.5145 721.647C61.6224 724.73 63.1764 726.272 64.9865 727.374C66.5915 728.351 68.3396 729.071 70.1674 729.508C72.2289 730 74.4181 730 78.7964 730H1362.27C1366.73 730 1368.96 730 1371.06 729.491C1372.91 729.04 1374.69 728.295 1376.31 727.286C1378.14 726.148 1379.7 724.557 1382.83 721.376L1406.75 697.004C1409.8 693.902 1411.32 692.351 1412.41 690.549C1413.37 688.951 1414.08 687.213 1414.51 685.397C1415 683.349 1415 681.175 1415 676.828V85.715C1415 81.3401 1415 79.1527 1414.51 77.0927C1414.07 75.2663 1413.35 73.5193 1412.38 71.9151C1411.28 70.1058 1409.74 68.5519 1406.66 65.4443L1380.98 39.5293C1377.86 36.3821 1376.3 34.8085 1374.48 33.6829C1372.86 32.6849 1371.1 31.9493 1369.25 31.5032C1367.17 31 1364.95 31 1360.52 31H633.051C628.693 31 626.513 31 624.46 31.4882C622.64 31.921 620.898 32.635 619.298 33.6045C617.493 34.6979 615.94 36.2275 612.836 39.2868L581.326 70.339C578.221 73.3982 576.669 74.9279 574.864 76.0213C573.264 76.9908 571.522 77.7048 569.702 78.1376C567.648 78.6258 565.469 78.6258 561.111 78.6258H80.4266C76.1201 78.6258 73.9668 78.6258 71.9354 79.1032C70.1341 79.5266 68.4089 80.2251 66.8206 81.1742C65.0292 82.2447 63.4826 83.7427 60.3893 86.7389L60.3892 86.739Z" fill="#E1E1E1" fill-opacity="0.05" shape-rendering="crispEdges"/>
<path d="M60.3892 86.739L31.7943 114.436L31.7942 114.436C28.5512 117.577 26.9297 119.148 25.7707 120.996C24.7434 122.634 23.9866 124.427 23.5297 126.306C23.0142 128.425 23.02 130.683 23.0317 135.198L24.4335 675.916C24.4449 680.327 24.4507 682.533 24.9552 684.607C25.4025 686.445 26.1369 688.202 27.1314 689.812C28.2531 691.628 29.819 693.181 32.9507 696.288L58.5137 721.646L58.5145 721.647C61.6224 724.73 63.1764 726.272 64.9865 727.374C66.5915 728.351 68.3396 729.071 70.1674 729.508C72.2289 730 74.4181 730 78.7964 730H1362.27C1366.73 730 1368.96 730 1371.06 729.491C1372.91 729.04 1374.69 728.295 1376.31 727.286C1378.14 726.148 1379.7 724.557 1382.83 721.376L1406.75 697.004C1409.8 693.902 1411.32 692.351 1412.41 690.549C1413.37 688.951 1414.08 687.213 1414.51 685.397C1415 683.349 1415 681.175 1415 676.828V85.715C1415 81.3401 1415 79.1527 1414.51 77.0927C1414.07 75.2663 1413.35 73.5193 1412.38 71.9151C1411.28 70.1058 1409.74 68.5519 1406.66 65.4443L1380.98 39.5293C1377.86 36.3821 1376.3 34.8085 1374.48 33.6829C1372.86 32.6849 1371.1 31.9493 1369.25 31.5032C1367.17 31 1364.95 31 1360.52 31H633.051C628.693 31 626.513 31 624.46 31.4882C622.64 31.921 620.898 32.635 619.298 33.6045C617.493 34.6979 615.94 36.2275 612.836 39.2868L581.326 70.339C578.221 73.3982 576.669 74.9279 574.864 76.0213C573.264 76.9908 571.522 77.7048 569.702 78.1376C567.648 78.6258 565.469 78.6258 561.111 78.6258H80.4266C76.1201 78.6258 73.9668 78.6258 71.9354 79.1032C70.1341 79.5266 68.4089 80.2251 66.8206 81.1742C65.0292 82.2447 63.4826 83.7427 60.3893 86.7389L60.3892 86.739Z" stroke="#FF5E05" stroke-width="1.14286" shape-rendering="crispEdges"/>
</g>
<g filter="url(#filter1_b_0_1)">
<path d="M53.5 82.5L45.0596 79.5986C42.317 78.6558 40.9457 78.1845 39.5933 78.1897C38.3974 78.1943 37.2177 78.4669 36.1411 78.9876C34.9236 79.5764 33.8982 80.6018 31.8476 82.6524L29.5938 84.9062C27.5632 86.9368 26.5479 87.9521 25.9608 89.1576C25.4415 90.2237 25.1657 91.3918 25.1534 92.5776C25.1395 93.9184 25.5935 95.2806 26.5016 98.0049L29 105.5" stroke="#FF5E05"/>
</g>
<g filter="url(#filter2_b_0_1)">
<path d="M1387 36.5L1395.44 33.5986C1398.18 32.6558 1399.55 32.1845 1400.91 32.1897C1402.1 32.1943 1403.28 32.4669 1404.36 32.9876C1405.58 33.5764 1406.6 34.6018 1408.65 36.6524L1410.91 38.9062C1412.94 40.9368 1413.95 41.9521 1414.54 43.1576C1415.06 44.2237 1415.33 45.3918 1415.35 46.5776C1415.36 47.9184 1414.91 49.2806 1414 52.0049L1411.5 59.5" stroke="#FF5E05"/>
</g>
<g filter="url(#filter3_b_0_1)">
<path d="M52.5 726L44.0596 728.901C41.317 729.844 39.9457 730.316 38.5933 730.31C37.3974 730.306 36.2177 730.033 35.1411 729.512C33.9236 728.924 32.8982 727.898 30.8476 725.848L28.5938 723.594C26.5632 721.563 25.5479 720.548 24.9608 719.342C24.4415 718.276 24.1657 717.108 24.1534 715.922C24.1395 714.582 24.5935 713.219 25.5016 710.495L28 703" stroke="#FF5E05"/>
</g>
<defs>
<filter id="filter0_bd_0_1" x="-68.9715" y="-61.0001" width="1575.97" height="883" filterUnits="userSpaceOnUse" color-interpolation-filters="sRGB">
<feFlood flood-opacity="0" result="BackgroundImageFix"/>
<feGaussianBlur in="BackgroundImageFix" stdDeviation="45.7143"/>
<feComposite in2="SourceAlpha" operator="in" result="effect1_backgroundBlur_0_1"/>
<feColorMatrix in="SourceAlpha" type="matrix" values="0 0 0 0 0 0 0 0 0 0 0 0 0 0 0 0 0 0 127 0" result="hardAlpha"/>
<feOffset dy="4"/>
<feGaussianBlur stdDeviation="17"/>
<feComposite in2="hardAlpha" operator="out"/>
<feColorMatrix type="matrix" values="0 0 0 0 1 0 0 0 0 0.364706 0 0 0 0 0.0156863 0 0 0 0.5 0"/>
<feBlend mode="normal" in2="effect1_backgroundBlur_0_1" result="effect2_dropShadow_0_1"/>
<feBlend mode="normal" in="SourceGraphic" in2="effect2_dropShadow_0_1" result="shape"/>
</filter>
<filter id="filter1_b_0_1" x="-66.7752" y="-13.7389" width="211.866" height="210.826" filterUnits="userSpaceOnUse" color-interpolation-filters="sRGB">
<feFlood flood-opacity="0" result="BackgroundImageFix"/>
<feGaussianBlur in="BackgroundImageFix" stdDeviation="45.7143"/>
<feComposite in2="SourceAlpha" operator="in" result="effect1_backgroundBlur_0_1"/>
<feBlend mode="normal" in="SourceGraphic" in2="effect1_backgroundBlur_0_1" result="shape"/>
</filter>
<filter id="filter2_b_0_1" x="1295.41" y="-59.7389" width="211.866" height="210.826" filterUnits="userSpaceOnUse" color-interpolation-filters="sRGB">
<feFlood flood-opacity="0" result="BackgroundImageFix"/>
<feGaussianBlur in="BackgroundImageFix" stdDeviation="45.7143"/>
<feComposite in2="SourceAlpha" operator="in" result="effect1_backgroundBlur_0_1"/>
<feBlend mode="normal" in="SourceGraphic" in2="effect1_backgroundBlur_0_1" result="shape"/>
</filter>
<filter id="filter3_b_0_1" x="-67.7752" y="611.413" width="211.866" height="210.826" filterUnits="userSpaceOnUse" color-interpolation-filters="sRGB">
<feFlood flood-opacity="0" result="BackgroundImageFix"/>
<feGaussianBlur in="BackgroundImageFix" stdDeviation="45.7143"/>
<feComposite in2="SourceAlpha" operator="in" result="effect1_backgroundBlur_0_1"/>
<feBlend mode="normal" in="SourceGraphic" in2="effect1_backgroundBlur_0_1" result="shape"/>
</filter>
</defs>
</svg>
